<mxfile host="app.diagrams.net" modified="2023-09-23T18:39:53.189Z" agent="Mozilla/5.0 (Macintosh; Intel Mac OS X 10_15_7) AppleWebKit/537.36 (KHTML, like Gecko) Chrome/116.0.0.0 Safari/537.36" version="21.6.2" etag="UFTS5R8aQOY4lzxaPejo" type="github">
  <diagram name="PÃ¡gina-1" id="cVkjtcBAUF7eC8NxDQug">
    <mxGraphModel>
      <root>
        <mxCell id="0" />
        <mxCell id="1" parent="0" />
      </root>
    </mxGraphModel>
  </diagram>
</mxfile>
